<svg xmlns="http://www.w3.org/2000/svg" opacity=".48" viewBox="5 354.5 795 366" preserveAspectRatio="none">
  <defs>
    <linearGradient id="a" x1="50%" x2="50%" y1="0%" y2="100%" gradientTransform="rotate(270)">
      <stop offset="0%" stop-color="hsl(206, 75%, 49%)"/>
      <stop offset="100%" stop-color="hsl(331, 90%, 56%)"/>
    </linearGradient>
  </defs>
  <g fill="none" stroke="url(#a)" stroke-linecap="round" stroke-width="2" transform="translate(-5 361.5)">
    <path d="M10 10c21.726 1.458 58.75 10.333 104.286 7C159.82 13.667 180.952-6.833 228.57-6s66.667 27.208 114.286 27S409.524-7 457.143-7s66.667 26.75 114.286 28S638.095-1.625 685.714-1 776.19 18.792 800 24"/>
    <path d="M10 70c21.726 1.458 58.75 10.333 104.286 7 45.535-3.333 66.666-23.833 114.285-23s66.667 27.208 114.286 27 66.667-28 114.286-28 66.667 26.75 114.286 28 66.666-22.625 114.285-22S776.19 78.792 800 84"/>
    <path d="M10 60c21.726 1.458 58.75 10.333 104.286 7 45.535-3.333 66.666-23.833 114.285-23s66.667 27.208 114.286 27 66.667-28 114.286-28 66.667 26.75 114.286 28 66.666-22.625 114.285-22S776.19 68.792 800 74"/>
    <path d="M10 50c21.726 1.458 58.75 10.333 104.286 7 45.535-3.333 66.666-23.833 114.285-23s66.667 27.208 114.286 27 66.667-28 114.286-28 66.667 26.75 114.286 28 66.666-22.625 114.285-22S776.19 58.792 800 64"/>
    <path d="M10 40c21.726 1.458 58.75 10.333 104.286 7 45.535-3.333 66.666-23.833 114.285-23s66.667 27.208 114.286 27 66.667-28 114.286-28 66.667 26.75 114.286 28 66.666-22.625 114.285-22S776.19 48.792 800 54"/>
    <path d="M10 30c21.726 1.458 58.75 10.333 104.286 7 45.535-3.333 66.666-23.833 114.285-23s66.667 27.208 114.286 27 66.667-28 114.286-28 66.667 26.75 114.286 28 66.666-22.625 114.285-22S776.19 38.792 800 44"/>
    <path d="M10 20c21.726 1.458 58.75 10.333 104.286 7C159.82 23.667 180.952 3.167 228.57 4s66.667 27.208 114.286 27S409.524 3 457.143 3s66.667 26.75 114.286 28S638.095 8.375 685.714 9 776.19 28.792 800 34"/>
  </g>
</svg>
